# xmcd
#
# Track frame offsets:
#	150
#	23019
#	40283
#	68065
#	91352
#	108733
#	130061
#	153397
#	163679
#	185809
#	203970
#
# Disc length: 2987 seconds
#
# Revision: 1
# Processed by: cddbd v1.5.2PL0 Copyright (c) Steve Scherf et al.
# Submitted via: audiograbber 1.83.01
#
DISCID=960ba90b
DTITLE=Flying Horseman - Echoes
DYEAR=2009
DGENRE=Blues
TTITLE0=America is Dead
TTITLE1=Question and Answer
TTITLE2=Warm Gun
TTITLE3=Hit
TTITLE4=Echoes
TTITLE5=Staircase Song
TTITLE6=Love Calls
TTITLE7=Dans Dans
TTITLE8=Bitter Storm (Alternative Version)
TTITLE9=There Lives a House (Alternative Version)
TTITLE10=Feather (Alternative Version)
EXTD=Ripped by DjMaxX
EXTT0=
EXTT1=
EXTT2=
EXTT3=
EXTT4=
EXTT5=
EXTT6=
EXTT7=
EXTT8=
EXTT9=
EXTT10=
PLAYORDER=
